# xmcd
#
# Track frame offsets: 
#        150
#        11745
#        28327
#        41457
#        60690
#        73357
#        87285
#        98780
#        117570
#
# Disc length: 1752 seconds
#
# Revision: 5
# Processed by: cddbd v1.5.2PL0 Copyright (c) Steve Scherf et al.
# Submitted via: ExactAudioCopy v0.95b4
#
DISCID=7e06d609
DTITLE=Vince Gill - Kraft Country Tour '97
DYEAR=1997
DGENRE=Country
TTITLE0=Take Your Memory With You
TTITLE1=The Strings That Tie You Down
TTITLE2=Riding The Rodeo
TTITLE3=When I Call Your Name
TTITLE4=Say Hello
TTITLE5=Under These Conditions
TTITLE6=I Quit
TTITLE7=No Future In The Past
TTITLE8=Oklahoma Swing
EXTD=
EXTT0=
EXTT1=
EXTT2=
EXTT3=
EXTT4=
EXTT5=
EXTT6=
EXTT7=
EXTT8=
PLAYORDER=
